<?xml version="1.0" encoding="utf-8"?>
<!-- Generator: Adobe Illustrator 22.0.1, SVG Export Plug-In . SVG Version: 6.00 Build 0)  -->
<svg version="1.1" id="Logo_4C" xmlns="http://www.w3.org/2000/svg" xmlns:xlink="http://www.w3.org/1999/xlink" x="0px" y="0px"
	 viewBox="0 0 303.9 107.3" style="enable-background:new 0 0 303.9 107.3;" xml:space="preserve">
<style type="text/css">
	.Arched_x0020_Green{fill:url(#SVGID_1_);stroke:#FFFFFF;stroke-width:0.25;stroke-miterlimit:1;}
	.st0{fill:#1D1D1B;}
	.st1{fill:#780D0A;stroke:#780D0A;stroke-width:0.14;}
	.st2{fill:#E40426;stroke:#E40426;stroke-width:0.14;}
</style>
<linearGradient id="SVGID_1_" gradientUnits="userSpaceOnUse" x1="-289.0919" y1="323.7245" x2="-288.3848" y2="323.0173">
	<stop  offset="0" style="stop-color:#1BA138"/>
	<stop  offset="0.9831" style="stop-color:#23391D"/>
</linearGradient>
<g>
	<path class="st0" d="M23.7,81.4L24,93.6c0,1.8-0.2,3.6-0.3,5.4h0.1c0.5-1.8,0.9-3.6,1.6-5.4l4.5-12.2h4L34.2,99h0.1
		c0.5-1.8,0.8-3.5,1.4-5.3l3.9-12.2h5.3l-9.3,25.5h-4.4l-0.5-13.4c0.1-1.6,0-3.1,0-4.7h-0.1c-0.5,1.6-0.9,3.1-1.5,4.7l-5,13.4h-4.4
		l-1.1-25.5H23.7z"/>
	<path class="st0" d="M53.6,81.4l-4,25.5h-5l4-25.5H53.6z"/>
	<path class="st0" d="M100.2,104.3h11.2v2.6H97.4V81.4h2.8V104.3z"/>
	<path class="st0" d="M117,96.6c0,1.9-0.1,4.1,1.1,5.7c1.1,1.6,3.3,2.4,5.1,2.4c1.8,0,3.8-0.8,5-2.3c1.4-1.6,1.2-3.8,1.2-5.8V81.4
		h2.8v15.9c0,2.8-0.2,5-2.2,7.1c-1.8,1.9-4.3,2.9-6.9,2.9c-2.4,0-4.9-0.9-6.6-2.6c-2.2-2.1-2.5-4.5-2.5-7.4V81.4h2.8V96.6z"/>
	<path class="st0" d="M161,94.1c0.1,3.4-0.3,6.3-2.6,9c-2.3,2.7-5.9,4.3-9.4,4.3c-7.2,0-13.1-5.9-13.1-13.1
		c0-7.3,5.9-13.2,13.3-13.2c4.5,0,8.1,2,10.8,5.5l-2.1,1.9c-2.1-3-5-4.8-8.7-4.8c-5.8,0-10.4,4.9-10.4,10.6c0,2.7,1.1,5.3,3,7.2
		c1.9,1.9,4.6,3.2,7.2,3.2c4.4,0,9.1-3.2,9.1-8h-7.6v-2.6H161z"/>
	<path class="st0" d="M188.7,94.1c0.1,3.4-0.3,6.3-2.6,9c-2.3,2.7-5.9,4.3-9.4,4.3c-7.2,0-13.1-5.9-13.1-13.1
		c0-7.3,5.9-13.2,13.3-13.2c4.5,0,8.1,2,10.8,5.5l-2.1,1.9c-2.1-3-5-4.8-8.7-4.8c-5.8,0-10.4,4.9-10.4,10.6c0,2.7,1.1,5.3,3,7.2
		c1.9,1.9,4.6,3.2,7.2,3.2c4.4,0,9.1-3.2,9.1-8h-7.6v-2.6H188.7z"/>
	<path class="st0" d="M196.5,99.7l-3.1,7.2h-3.1l11.7-26.7l11.4,26.7h-3.1l-3-7.2H196.5z M202,86.8L197.7,97h8.6L202,86.8z"/>
	<path class="st0" d="M240,94.1c0.1,3.4-0.3,6.3-2.6,9c-2.3,2.7-5.9,4.3-9.4,4.3c-7.2,0-13.1-5.9-13.1-13.1
		c0-7.3,5.9-13.2,13.3-13.2c4.5,0,8.1,2,10.8,5.5l-2.1,1.9c-2.1-3-5-4.8-8.7-4.8c-5.8,0-10.4,4.9-10.4,10.6c0,2.7,1.1,5.3,3,7.2
		c1.9,1.9,4.6,3.2,7.2,3.2c4.4,0,9.1-3.2,9.1-8h-7.6v-2.6H240z"/>
	<path class="st0" d="M244,81.4h13.2v2.6h-10.4v7.6h10.1v2.6h-10.1v10h10.4v2.6H244V81.4z"/>
	<path class="st0" d="M9.8,85.6c1.4,0,2.5,0.7,3.4,1.6v-5.3c-1-0.5-2.2-0.8-3.5-0.8c-4.3,0-7.2,3.5-7.8,7.5
		c-0.6,3.7,0.9,5.6,3.5,7.6c1.3,1,2.7,1.8,2.4,3.7c-0.3,1.7-1.7,2.8-3.3,2.8c-1.5,0-2.5-0.5-3.6-1.4L0,106c1,0.8,2.7,1.3,4.1,1.3
		c4.7,0,7.9-3.4,8.6-7.9c1.1-6.9-6.5-7.1-5.9-11.3C7.1,86.5,8.2,85.6,9.8,85.6z"/>
	<path class="st0" d="M65,85.6c1.4,0,2.5,0.7,3.4,1.6v-5.3c-1-0.5-2.2-0.8-3.5-0.8c-4.3,0-7.2,3.5-7.8,7.5c-0.6,3.7,0.9,5.6,3.5,7.6
		c1.3,1,2.7,1.8,2.4,3.7c-0.3,1.7-1.7,2.8-3.3,2.8c-1.5,0-2.5-0.5-3.6-1.4l-0.8,4.8c1,0.8,2.7,1.3,4.1,1.3c4.7,0,7.9-3.4,8.6-7.9
		c1.1-6.9-6.5-7.1-5.9-11.3C62.4,86.5,63.5,85.6,65,85.6z"/>
	<path class="st0" d="M81.6,85.6c1.4,0,2.5,0.7,3.4,1.6v-5.3c-1-0.5-2.2-0.8-3.5-0.8c-4.3,0-7.2,3.5-7.8,7.5
		c-0.6,3.7,0.9,5.6,3.5,7.6c1.3,1,2.7,1.8,2.4,3.7c-0.3,1.7-1.7,2.8-3.3,2.8c-1.5,0-2.5-0.5-3.6-1.4l-0.8,4.8c1,0.8,2.7,1.3,4.1,1.3
		c4.7,0,7.9-3.4,8.6-7.9c1.1-6.9-6.5-7.1-5.9-11.3C78.9,86.5,80,85.6,81.6,85.6z"/>
</g>
<g>
	<g>
		<polygon class="st1" points="167.4,21.3 167.4,31.9 156.8,31.9 156.8,42.5 188.6,42.5 188.6,31.9 199.2,31.9 199.2,21.3 		"/>
		<polygon class="st1" points="114.4,10.7 114.4,21.3 103.9,21.3 103.9,31.9 135.6,31.9 135.6,21.3 146.2,21.3 146.2,10.7 		"/>
	</g>
	<polygon class="st2" points="156.8,0.1 156.8,10.7 146.2,10.7 146.2,21.3 135.6,21.3 135.6,53.1 146.2,53.1 146.2,42.5 156.8,42.5 
		156.8,31.9 167.4,31.9 167.4,0.1 	"/>
</g>
<path class="st0" d="M282.5,86.4c-1-1.8-2.2-2.8-4.4-2.8c-2.3,0-4.2,1.6-4.2,3.9c0,2.2,2.3,3.2,4,4l1.7,0.7c3.3,1.5,6.1,3.1,6.1,7.2
	c0,4.5-3.6,7.9-8,7.9c-4.1,0-7.1-2.6-7.9-6.6l2.8-0.8c0.4,2.6,2.4,4.7,5.1,4.7c2.7,0,5.2-2.1,5.2-5c0-3-2.3-4-4.7-5.1l-1.6-0.7
	c-3-1.4-5.5-2.9-5.5-6.5c0-3.9,3.3-6.5,7.1-6.5c2.8,0,5.2,1.5,6.6,3.9L282.5,86.4z"/>
<path class="st0" d="M292.7,104.3h11.2v2.6h-14.1V81.4h2.8V104.3z"/>
</svg>
